<svg xmlns="http://www.w3.org/2000/svg" xmlns:xlink="http://www.w3.org/1999/xlink" width="32.221" height="36.567" viewBox="0 0 32.221 36.567">
  <defs>
    <clipPath id="clip-path">
      <rect id="Rectangle_224" data-name="Rectangle 224" width="32.221" height="36.567" fill="#fff"/>
    </clipPath>
  </defs>
  <g id="Group_378" data-name="Group 378" transform="translate(0 0)">
    <g id="Group_377" data-name="Group 377" transform="translate(0 0)" clip-path="url(#clip-path)">
      <path id="Path_362" data-name="Path 362" d="M19.486,36.567q-7.354,0-11.243-4.51T4.35,18.618V17.95q0-8.974,3.8-13.463T19.245,0a16.633,16.633,0,0,1,7.614,1.552,10.728,10.728,0,0,1,4.585,4.3,12.891,12.891,0,0,1,1.419,3.915,2.046,2.046,0,0,1-2.025,2.409H27.193a2.067,2.067,0,0,1-1.967-1.487,5.178,5.178,0,0,0-1.42-2.309,6.473,6.473,0,0,0-4.561-1.409q-3.864,0-5.513,2.577t-1.647,8.738q0,6.157,1.74,8.735t5.66,2.577a6.531,6.531,0,0,0,4.6-1.408,5.18,5.18,0,0,0,1.423-2.311,2.066,2.066,0,0,1,1.966-1.485h3.643a2.046,2.046,0,0,1,2.024,2.412A13.051,13.051,0,0,1,31.728,30.7a10.666,10.666,0,0,1-4.58,4.32,16.768,16.768,0,0,1-7.661,1.55" transform="translate(-0.963 0)" fill="#fff"/>
      <path id="Path_363" data-name="Path 363" d="M0,27.986H0a2.052,2.052,0,0,1,2.053-2.053h16.47a2.053,2.053,0,1,1,0,4.105H2.053A2.052,2.052,0,0,1,0,27.986" transform="translate(0 -5.74)" fill="#00a89d"/>
      <path id="Path_364" data-name="Path 364" d="M1.1,18.668v0a2.052,2.052,0,0,1,2.053-2.052h16.47a2.052,2.052,0,0,1,2.053,2.052v0a2.052,2.052,0,0,1-2.053,2.053H3.156A2.052,2.052,0,0,1,1.1,18.668" transform="translate(-0.244 -3.677)" fill="#00a89d"/>
    </g>
  </g>
</svg>
