<svg xmlns="http://www.w3.org/2000/svg" xmlns:xlink="http://www.w3.org/1999/xlink" width="45.681" height="42.36" viewBox="0 0 45.681 42.36">
  <defs>
    <clipPath id="clip-path">
      <rect id="Rectangle_223" data-name="Rectangle 223" width="45.681" height="42.36" fill="#fff"/>
    </clipPath>
  </defs>
  <g id="Group_376" data-name="Group 376" transform="translate(0 0)">
    <g id="Group_375" data-name="Group 375" transform="translate(0 0)" clip-path="url(#clip-path)">
      <path id="Path_358" data-name="Path 358" d="M44.018,25.494H34.4a3.451,3.451,0,0,0-3.4-2.879H24.874a3.451,3.451,0,0,0-3.4,2.879H9.435v-6.4a1.051,1.051,0,1,1,2.1,0,1.57,1.57,0,0,0,3.14,0,4.191,4.191,0,0,0-8.382,0v6.4H1.677a1.7,1.7,0,0,0-1.34.649,1.627,1.627,0,0,0-.272,1.444L3.5,40.458a7.034,7.034,0,0,0,6.781,5.212h.2l-.6,1.582a1.883,1.883,0,1,0,3.525,1.327l1.1-2.909h16.67l1.1,2.909A1.884,1.884,0,1,0,35.8,47.252l-.6-1.582h.213A7.071,7.071,0,0,0,42.2,40.458l3.433-12.872a1.7,1.7,0,0,0-.293-1.444,1.654,1.654,0,0,0-1.318-.649M31.741,32.4a.733.733,0,0,1-.933.7l-1.922-.546a3.448,3.448,0,0,0-1.889,0l-1.923.546a.733.733,0,0,1-.933-.7V26.068a.734.734,0,0,1,.733-.733h6.134a.734.734,0,0,1,.733.733Z" transform="translate(0 -7.44)" fill="#fff"/>
      <path id="Path_359" data-name="Path 359" d="M41.5,14.03a1,1,0,0,0,.333-.056,1.019,1.019,0,0,0,.622-1.3l-.017-.048a5.965,5.965,0,0,1-.446-2.289,6.582,6.582,0,0,1,.651-2.254c.074-.182.153-.368.235-.557.11-.256.224-.522.331-.8a5.673,5.673,0,0,0,.415-1.835A4.94,4.94,0,0,0,43.345,3a4.764,4.764,0,0,0-.4-.852,4.346,4.346,0,0,0-.6-.793.975.975,0,0,0-1.668.875l.076.342c.011.049.035.122.062.2s.068.2.088.293l.014.061a2.969,2.969,0,0,1,.086.479,3.4,3.4,0,0,1-.031,1.025,4.344,4.344,0,0,1-.346,1l-.615,1.344A10.843,10.843,0,0,0,39.47,8.56a5.989,5.989,0,0,0-.155,1.856,5.731,5.731,0,0,0,1.4,3.255,1.027,1.027,0,0,0,.781.359" transform="translate(-19.616 -0.518)" fill="#00a89d"/>
      <path id="Path_360" data-name="Path 360" d="M52.884,12.633a1.026,1.026,0,0,0,.78.359,1.016,1.016,0,0,0,.956-1.352l-.017-.048a5.974,5.974,0,0,1-.445-2.29,6.543,6.543,0,0,1,.65-2.253c.076-.188.158-.379.241-.574.108-.251.22-.511.325-.783a5.709,5.709,0,0,0,.416-1.835,4.943,4.943,0,0,0-.276-1.9,4.879,4.879,0,0,0-.4-.854,4.337,4.337,0,0,0-.6-.792.99.99,0,0,0-.928-.289.975.975,0,0,0-.74,1.165l.076.341c.011.049.035.121.062.2s.068.2.088.3l.018.08a2.928,2.928,0,0,1,.082.461,3.361,3.361,0,0,1-.031,1.025,4.364,4.364,0,0,1-.346,1l-.614,1.344a10.97,10.97,0,0,0-.546,1.584,6.006,6.006,0,0,0-.154,1.856,5.716,5.716,0,0,0,1.4,3.254" transform="translate(-25.691 0)" fill="#00a89d"/>
      <path id="Path_361" data-name="Path 361" d="M65.052,13.672a1.03,1.03,0,0,0,.782.359,1,1,0,0,0,.332-.056,1.021,1.021,0,0,0,.622-1.3l-.017-.045a5.95,5.95,0,0,1-.445-2.29,6.56,6.56,0,0,1,.65-2.254c.074-.182.153-.368.235-.557.11-.256.224-.522.331-.8A5.674,5.674,0,0,0,67.956,4.9,4.941,4.941,0,0,0,67.681,3a4.781,4.781,0,0,0-.4-.852,4.343,4.343,0,0,0-.6-.792.975.975,0,0,0-1.668.876l.077.341c.011.048.035.12.061.2a3.072,3.072,0,0,1,.088.3l.014.061a2.968,2.968,0,0,1,.086.479,3.361,3.361,0,0,1-.031,1.025,4.344,4.344,0,0,1-.346,1l-.616,1.344a10.81,10.81,0,0,0-.544,1.583,6,6,0,0,0-.154,1.856,5.716,5.716,0,0,0,1.4,3.255" transform="translate(-31.765 -0.518)" fill="#00a89d"/>
    </g>
  </g>
</svg>
