<svg id="Group_136" data-name="Group 136" xmlns="http://www.w3.org/2000/svg" xmlns:xlink="http://www.w3.org/1999/xlink" width="69.929" height="78.656" viewBox="0 0 69.929 78.656">
  <defs>
    <clipPath id="clip-path">
      <rect id="Rectangle_95" data-name="Rectangle 95" width="69.929" height="78.657" fill="none"/>
    </clipPath>
  </defs>
  <g id="Group_135" data-name="Group 135" clip-path="url(#clip-path)">
    <path id="Path_272" data-name="Path 272" d="M45.127,79.29,52,67.714h5.921L55.881,78.255H57.5l-.744,3.851H55.138l-.9,4.594h-4.3l.9-4.594H44.622Zm6.453-1.035.823-4.221c.213-1.036.5-2.125.5-2.125H52.88a21.261,21.261,0,0,1-1.062,2.1l-2.337,4.2v.052Z" transform="translate(-21.99 -33.369)" fill="#1c1c68"/>
    <path id="Path_273" data-name="Path 273" d="M74.957,76.4a6.009,6.009,0,0,1-1.169-3.585,5.516,5.516,0,0,1,5.868-5.735c3.187,0,5.1,1.832,5.1,4.2,0,2.522-2.018,4.646-2.974,5.522a4.891,4.891,0,0,1,1.594,3.8c0,3.053-2.045,6.107-6.479,6.107-3.691,0-5.47-2.1-5.47-4.514A6.984,6.984,0,0,1,74.957,76.4m2.629,1.965a3.986,3.986,0,0,0-1.726,2.974c0,.876.425,1.407,1.3,1.407a1.845,1.845,0,0,0,1.779-2.045,2.69,2.69,0,0,0-1.354-2.336m1.434-3.452a4.156,4.156,0,0,0,1.54-2.682,1.073,1.073,0,0,0-1.195-1.194c-.982,0-1.327.77-1.327,1.752a2.329,2.329,0,0,0,.982,2.124" transform="translate(-35.199 -33.06)" fill="#1c1c68"/>
    <path id="Path_274" data-name="Path 274" d="M99.288,65.888H101.8l-.619,3.313a3.731,3.731,0,0,1-.155.511h.031a2.3,2.3,0,0,1,1.874-.913c1.052,0,1.811.588,1.811,1.982a6.067,6.067,0,0,1-.078.929l-1.021,5.247H101.13l.9-4.629a4.846,4.846,0,0,0,.109-.635c0-.371-.093-.542-.4-.542-.759,0-1.177,1.192-1.27,1.687l-.8,4.117H97.152Z" transform="translate(-47.877 -32.47)" fill="#1c1c68"/>
    <path id="Path_275" data-name="Path 275" d="M69.042,43.679a.876.876,0,0,0-.871.86A29.1,29.1,0,1,1,34.58,14.931v4.23l13.1-9.581L34.58,0V4.846A39.106,39.106,0,0,0,.121,40.409C-1.533,60.39,13.954,78.1,34,78.643A34.978,34.978,0,0,0,69.929,44.579a.887.887,0,0,0-.887-.9" transform="translate(0 0)" fill="#00a99d"/>
    <line id="Line_1" data-name="Line 1" y2="3.29" transform="translate(39.352 18.642)" fill="#1c1c68"/>
    <line id="Line_2" data-name="Line 2" x2="1.282" y2="3.03" transform="translate(29.784 20.574)" fill="#1c1c68"/>
    <line id="Line_3" data-name="Line 3" x2="2.327" y2="2.327" transform="translate(21.972 25.841)" fill="#1c1c68"/>
    <line id="Line_4" data-name="Line 4" x2="3.03" y2="1.282" transform="translate(16.706 33.653)" fill="#1c1c68"/>
    <line id="Line_5" data-name="Line 5" x2="3.29" transform="translate(14.773 43.22)" fill="#1c1c68"/>
    <line id="Line_6" data-name="Line 6" y1="1.282" x2="3.03" transform="translate(16.706 51.506)" fill="#1c1c68"/>
    <line id="Line_7" data-name="Line 7" y1="2.327" x2="2.327" transform="translate(21.972 58.273)" fill="#1c1c68"/>
    <line id="Line_8" data-name="Line 8" y1="3.03" x2="1.282" transform="translate(29.784 62.836)" fill="#1c1c68"/>
    <line id="Line_9" data-name="Line 9" y1="3.29" transform="translate(39.352 64.509)" fill="#1c1c68"/>
    <line id="Line_10" data-name="Line 10" x1="1.282" y1="3.03" transform="translate(47.637 62.836)" fill="#1c1c68"/>
    <line id="Line_11" data-name="Line 11" x1="2.327" y1="2.327" transform="translate(54.404 58.273)" fill="#1c1c68"/>
    <line id="Line_12" data-name="Line 12" x1="3.03" y1="1.282" transform="translate(58.968 51.506)" fill="#1c1c68"/>
    <line id="Line_13" data-name="Line 13" x1="3.29" transform="translate(60.64 43.22)" fill="#1c1c68"/>
    <line id="Line_14" data-name="Line 14" x1="3.03" y2="1.282" transform="translate(58.968 33.653)" fill="#1c1c68"/>
    <line id="Line_15" data-name="Line 15" x1="2.327" y2="2.327" transform="translate(54.404 25.841)" fill="#1c1c68"/>
    <line id="Line_16" data-name="Line 16" x1="1.282" y2="3.03" transform="translate(47.637 20.574)" fill="#1c1c68"/>
    <line id="Line_17" data-name="Line 17" y2="3.29" transform="translate(39.352 18.642)" fill="#1c1c68"/>
  </g>
</svg>
