<svg id="Group_134" data-name="Group 134" xmlns="http://www.w3.org/2000/svg" xmlns:xlink="http://www.w3.org/1999/xlink" width="61.137" height="75.564" viewBox="0 0 61.137 75.564">
  <defs>
    <clipPath id="clip-path">
      <rect id="Rectangle_94" data-name="Rectangle 94" width="61.137" height="75.564" fill="none"/>
    </clipPath>
  </defs>
  <g id="Group_133" data-name="Group 133" clip-path="url(#clip-path)">
    <path id="Path_267" data-name="Path 267" d="M24.179,66.6,14.5,55.437a2.519,2.519,0,0,0-1.731-.859,2.477,2.477,0,0,0-1.82.627,2.505,2.505,0,0,0-.564,3.006l.271.532a57.119,57.119,0,0,0,5.167,8.284l1.685,2.252a1.673,1.673,0,1,1-2.678,2l-1.686-2.25a60.693,60.693,0,0,1-5.469-8.77L7.4,59.731a5.853,5.853,0,0,1,1.32-7.025c.154-.135.309-.261.467-.374L5.663,43.413a2.969,2.969,0,0,0-2.5-1.845A2.933,2.933,0,0,0,0,44.541L.388,67.586a8.343,8.343,0,0,0,2.4,5.738l8.707,8.87H26.233l-.275-11.2a7.358,7.358,0,0,0-1.779-4.4" transform="translate(0 -16.995)" fill="#00a99d"/>
    <path id="Path_268" data-name="Path 268" d="M19.771,121.464a1.409,1.409,0,0,0,1.41,1.409H32.907a1.41,1.41,0,0,0,1.411-1.409V115.69H19.771Z" transform="translate(-8.085 -47.309)" fill="#00a99d"/>
    <path id="Path_269" data-name="Path 269" d="M84.361,42.356a2.9,2.9,0,0,0-2.239-.787,2.969,2.969,0,0,0-2.5,1.844L76.1,52.332a5.837,5.837,0,0,1,1.787,7.4l-.271.533a60.61,60.61,0,0,1-5.469,8.77l-1.686,2.251a1.646,1.646,0,0,1-1.1.654,1.674,1.674,0,0,1-1.58-2.659l1.685-2.251a57.235,57.235,0,0,0,5.167-8.284l.271-.533a2.5,2.5,0,0,0-.566-3.006,2.473,2.473,0,0,0-1.819-.627,2.522,2.522,0,0,0-1.731.858L61.106,66.6a7.352,7.352,0,0,0-1.779,4.4l-.276,11.2H73.785l8.708-8.87a8.348,8.348,0,0,0,2.4-5.738l.387-23.045a2.9,2.9,0,0,0-.923-2.185" transform="translate(-24.148 -16.995)" fill="#00a99d"/>
    <path id="Path_270" data-name="Path 270" d="M59.051,121.464a1.41,1.41,0,0,0,1.411,1.409H72.188a1.409,1.409,0,0,0,1.411-1.409V115.69H59.051Z" transform="translate(-24.148 -47.309)" fill="#00a99d"/>
    <path id="Path_271" data-name="Path 271" d="M38.164,0A19.589,19.589,0,1,0,57.753,19.587,19.589,19.589,0,0,0,38.164,0M47.256,17.18l-9.769,9.768a2.849,2.849,0,0,1-4.029,0L28.6,22.1a2.85,2.85,0,1,1,4.029-4.03l2.839,2.842,7.754-7.755a2.849,2.849,0,0,1,4.029,4.029" transform="translate(-7.596 0)" fill="#1c1c68"/>
  </g>
</svg>
