<svg id="Group_128" data-name="Group 128" xmlns="http://www.w3.org/2000/svg" xmlns:xlink="http://www.w3.org/1999/xlink" width="68.459" height="68.944" viewBox="0 0 68.459 68.944">
  <defs>
    <clipPath id="clip-path">
      <rect id="Rectangle_91" data-name="Rectangle 91" width="68.459" height="68.945" fill="none"/>
    </clipPath>
  </defs>
  <g id="Group_127" data-name="Group 127" transform="translate(0 0)" clip-path="url(#clip-path)">
    <path id="Path_250" data-name="Path 250" d="M59.856,90.215V74.5a2.131,2.131,0,0,0-4.262,0V90.215a6.008,6.008,0,1,0,4.262,0" transform="translate(-23.496 -32.878)" fill="#1c1c68"/>
    <path id="Path_251" data-name="Path 251" d="M16.288,64.6a2.13,2.13,0,0,0-2.85.981L6.55,79.7a6.008,6.008,0,1,0,3.831,1.868l6.889-14.124a2.13,2.13,0,0,0-.981-2.85" transform="translate(0 -29.25)" fill="#1c1c68"/>
    <path id="Path_252" data-name="Path 252" d="M110.288,83.036a5.994,5.994,0,0,0-5.939-3.333L97.46,65.579a2.131,2.131,0,0,0-3.831,1.868l6.889,14.124a6,6,0,1,0,9.769,1.464" transform="translate(-42.439 -29.249)" fill="#1c1c68"/>
    <path id="Path_253" data-name="Path 253" d="M38.165,34.213C54.287,34.213,64.181,23,66.83,19.565a4.026,4.026,0,0,0,0-4.915C64.181,11.212,54.287,0,38.165,0S12.15,11.212,9.5,14.65a4.031,4.031,0,0,0,0,4.915C12.15,23,22.045,34.213,38.165,34.213M52.876,8.389a35.877,35.877,0,0,1,10.21,8.717,35.9,35.9,0,0,1-10.211,8.718,17.058,17.058,0,0,0,0-17.435M38.165,4.463A12.644,12.644,0,1,1,25.521,17.106,12.658,12.658,0,0,1,38.165,4.463M23.455,8.389a17.057,17.057,0,0,0,0,17.434,35.873,35.873,0,0,1-10.211-8.717A35.882,35.882,0,0,1,23.455,8.389" transform="translate(-3.936 0)" fill="#00a99d"/>
    <path id="Path_254" data-name="Path 254" d="M55.562,32.787A8.607,8.607,0,1,0,52.2,16.257a3.625,3.625,0,1,1-4.559,4.571,8.6,8.6,0,0,0,7.924,11.96" transform="translate(-21.332 -7.075)" fill="#00a99d"/>
  </g>
</svg>
