<svg id="Group_132" data-name="Group 132" xmlns="http://www.w3.org/2000/svg" xmlns:xlink="http://www.w3.org/1999/xlink" width="74.673" height="72.689" viewBox="0 0 74.673 72.689">
  <defs>
    <clipPath id="clip-path">
      <rect id="Rectangle_93" data-name="Rectangle 93" width="74.673" height="72.689" fill="none"/>
    </clipPath>
  </defs>
  <g id="Group_131" data-name="Group 131" clip-path="url(#clip-path)">
    <path id="Path_264" data-name="Path 264" d="M74.861,28.242a3.359,3.359,0,1,0,3.933-5.448L68.1,15.073V5.51a2.167,2.167,0,0,0-2.165-2.165H62.1A2.166,2.166,0,0,0,59.93,5.51V9.179L47.712.36a1.906,1.906,0,0,0-2.231,0L14.4,22.794a3.359,3.359,0,1,0,3.932,5.448L46.6,7.84Z" transform="translate(-5.515 0)" fill="#00a99d"/>
    <path id="Path_265" data-name="Path 265" d="M45.631,53.257A15.212,15.212,0,0,0,33.887,38.441l21.574-15.59,24.1,17.442V63.556a4.182,4.182,0,0,1-4.172,4.193H50.474V62.131A6.733,6.733,0,0,0,46.526,56c-.305-.122-.59-.264-.9-.386Z" transform="translate(-14.371 -9.691)" fill="#00a99d"/>
    <path id="Path_266" data-name="Path 266" d="M0,76.287V93.88a2.659,2.659,0,0,0,2.657,2.656H29.372a2.659,2.659,0,0,0,2.656-2.656V76.287a2.661,2.661,0,0,0-1.559-2.419A34.276,34.276,0,0,0,27.2,72.593v-5.18a11.182,11.182,0,1,0-22.363,0v5.18A34,34,0,0,0,1.56,73.867,2.662,2.662,0,0,0,0,76.287m14.419,7.407a3.535,3.535,0,1,1,3.192,0l1.385,5.239a.86.86,0,0,1-.832,1.08h-4.3a.861.861,0,0,1-.832-1.08ZM11,67.413a5.013,5.013,0,1,1,10.027,0v3.742a35.066,35.066,0,0,0-10.027,0Z" transform="translate(0 -23.847)" fill="#1c1c68"/>
  </g>
</svg>
