<svg xmlns="http://www.w3.org/2000/svg" width="132.464" height="132.583" viewBox="0 0 132.464 132.583">
  <g id="Group_139" data-name="Group 139" transform="translate(-658.517 -977.12)">
    <path id="Path_288" data-name="Path 288" d="M732.364,72.759A21.138,21.138,0,1,0,753.506,93.9a21.144,21.144,0,0,0-21.142-21.138m0-8.633A29.77,29.77,0,0,1,762.138,93.9a33.187,33.187,0,0,1-5.167,16.85L766.3,119.8l.115-.125a2.719,2.719,0,0,1,3.832-.057l16.343,15.863a2.7,2.7,0,0,1,.058,3.827l-5.893,6.083a2.721,2.721,0,0,1-3.832.057l-16.343-15.864a2.7,2.7,0,0,1-.058-3.826l.541-.568-9.127-8.864a29.772,29.772,0,1,1-19.577-52.2" transform="translate(3.562 961.964)" fill="#1c1c68" fill-rule="evenodd"/>
    <path id="Path_289" data-name="Path 289" d="M671.959,3.248h64.048V16.593a2.21,2.21,0,0,0,2.21,2.21h13.35V67.094a34.263,34.263,0,0,0-8.506-11.032V30.651a7.113,7.113,0,0,0-2.094-5.078L729.239,13.846a7.1,7.1,0,0,0-5.076-2.1H669.2V6.01a2.768,2.768,0,0,1,2.762-2.762M646.132,29.077a2.761,2.761,0,0,0-2.762,2.761V133.069a2.761,2.761,0,0,0,2.762,2.762h76.834a2.761,2.761,0,0,0,2.762-2.762V115.818a34.347,34.347,0,0,1-4.949.359,33.987,33.987,0,0,1-14.237-3.1H655.581a2.21,2.21,0,1,1,0-4.419h43.8a34.646,34.646,0,0,1-6.536-6.946H655.581a2.21,2.21,0,1,1,0-4.419H690.2a34.2,34.2,0,0,1-2.578-6.947H655.581a2.21,2.21,0,0,1,0-4.42h31.235a34.2,34.2,0,0,1-.23-3.938q0-1.52.138-3.007H655.581a2.21,2.21,0,0,1,0-4.42H687.4a33.232,33.232,0,0,1,2.348-6.945h-34.17a2.21,2.21,0,0,1,0-4.42h36.633a34.245,34.245,0,0,1,6.065-6.945h-42.7a2.21,2.21,0,1,1,0-4.419h49.086A34.016,34.016,0,0,1,720.78,47.8a34.463,34.463,0,0,1,4.949.359V44.631H712.389a2.21,2.21,0,0,1-2.21-2.21V29.077Zm68.467,2.21v8.925h8.92Zm-59.018,13.6h31.581a2.21,2.21,0,1,0,0-4.419H655.581a2.21,2.21,0,1,0,0,4.419m0,79.557a2.21,2.21,0,1,1,0-4.419h57.936a2.21,2.21,0,1,1,0,4.419Zm3.464-108.28a2.768,2.768,0,0,0-2.761,2.762v5.732h54.955a7.105,7.105,0,0,1,5.087,2.1l11.728,11.726a7.111,7.111,0,0,1,2.095,5.078V49.1a33.8,33.8,0,0,1,8.493,3.736V31.717H725.3a2.211,2.211,0,0,1-2.211-2.21V16.162Zm79.6,94.978v9.015a2.762,2.762,0,0,1-2.762,2.761h-5.731v-8.041a33.8,33.8,0,0,0,8.493-3.736M727.513,18.372V27.3h8.919ZM740.425,5.458v8.925h8.931Z" transform="translate(15.147 973.872)" fill="#00a99d" fill-rule="evenodd"/>
  </g>
</svg>
