<svg xmlns="http://www.w3.org/2000/svg" width="127.491" height="128.67" viewBox="0 0 127.491 128.67">
  <g id="Group_140" data-name="Group 140" transform="translate(-873.58 -983.792)">
    <path id="Path_290" data-name="Path 290" d="M960.306,36.328a24.786,24.786,0,1,0-24.787,24.786,24.814,24.814,0,0,0,24.787-24.786m-12.027-4.713L935.257,46.141a3.635,3.635,0,0,1-5.414,0l-7.431-8.292A3.635,3.635,0,0,1,927.825,33l4.725,5.277,10.316-11.511a3.65,3.65,0,0,1,2.708-1.208,3.634,3.634,0,0,1,2.705,6.06" transform="translate(-37.153 972.25)" fill="#1c1c68"/>
    <path id="Path_291" data-name="Path 291" d="M1032.386,61.113A24.785,24.785,0,1,0,1007.6,36.328a24.815,24.815,0,0,0,24.787,24.786m-10.85-30.5a3.634,3.634,0,1,1,5.138-5.141l5.711,5.714,5.713-5.714a3.634,3.634,0,0,1,5.137,5.141l-5.71,5.71,5.71,5.71a3.633,3.633,0,1,1-5.137,5.138l-5.713-5.71-5.711,5.71a3.633,3.633,0,1,1-5.138-5.138l5.708-5.71Z" transform="translate(-56.102 972.25)" fill="#1c1c68"/>
    <path id="Path_292" data-name="Path 292" d="M1036.393,80.277a7.216,7.216,0,0,0-1.351-.133,6.844,6.844,0,0,0-6.848,6.826v.306a2.025,2.025,0,1,1-4.051,0v-4.8a6.854,6.854,0,0,0-6.847-6.847,7.229,7.229,0,0,0-1.353.13,6.973,6.973,0,0,0-5.5,6.954v1.654a2.025,2.025,0,0,1-4.051,0v-5.8a6.841,6.841,0,0,0-6.846-6.824c-.117,0-.236,0-.359.008a7.1,7.1,0,0,0-6.468,7.168v2.819a2.036,2.036,0,0,1-4.073,0V43.9a6.839,6.839,0,0,0-6.85-7.116,6.844,6.844,0,0,0-6.825,6.849V97.773a1.412,1.412,0,0,1-1.462,1.417,1.381,1.381,0,0,1-1.125-.561L962.8,85.759a7.8,7.8,0,0,0-3.995-2.9,7.552,7.552,0,0,0-2.124-.306,7.406,7.406,0,0,0-6.566,10.959l19.021,37.218A26.357,26.357,0,0,0,992.7,145.151h22.737a26.569,26.569,0,0,0,18.246-7.215,25.7,25.7,0,0,0,8.183-17.733c.013-.3.02-.573.02-.824V87.233a6.972,6.972,0,0,0-5.5-6.956" transform="translate(-44.694 967.311)" fill="#00a99d"/>
  </g>
</svg>
