<svg xmlns="http://www.w3.org/2000/svg" width="108.277" height="138.62" viewBox="0 0 108.277 138.62">
  <g id="Group_141" data-name="Group 141" transform="translate(-1107.544 -974.508)">
    <path id="Path_293" data-name="Path 293" d="M1267.772,22.38a4.967,4.967,0,0,0,4.965-4.965V4.965a4.965,4.965,0,1,0-9.929,0V17.492a4.918,4.918,0,0,0,4.965,4.887" transform="translate(-106.024 974.508)" fill="#1c1c68"/>
    <path id="Path_294" data-name="Path 294" d="M1239.34,23.452a4.834,4.834,0,0,0,4.63,3.241,5.942,5.942,0,0,0,1.724-.308,4.947,4.947,0,0,0,2.933-6.354l-4.271-11.7a4.948,4.948,0,0,0-9.287,3.421Z" transform="translate(-100.538 973.513)" fill="#1c1c68"/>
    <path id="Path_295" data-name="Path 295" d="M1288.657,26.289a5.651,5.651,0,0,0,1.724.309,4.9,4.9,0,0,0,4.63-3.242l4.27-11.7a4.948,4.948,0,1,0-9.286-3.421l-4.271,11.7a4.928,4.928,0,0,0,2.933,6.354" transform="translate(-110.447 973.531)" fill="#1c1c68"/>
    <path id="Path_296" data-name="Path 296" d="M1216.576,160.43h35.783V111.493h-40.392v44.328a4.623,4.623,0,0,0,4.609,4.609" transform="translate(-96.079 952.698)" fill="#00a99d"/>
    <path id="Path_297" data-name="Path 297" d="M1275.615,160.43H1311.4a4.623,4.623,0,0,0,4.608-4.609V111.493h-40.392Z" transform="translate(-108.53 952.698)" fill="#00a99d"/>
    <path id="Path_298" data-name="Path 298" d="M1250.33,70h10.8V86.845h44.126a4.567,4.567,0,0,0,4.611-4.609v-8.35a4.6,4.6,0,0,0-4.611-4.61h-22.027a14.592,14.592,0,1,0-13.794-25.03l-13.7,11.69-13.705-11.69a14.613,14.613,0,1,0-13.8,25.03H1206.2a4.624,4.624,0,0,0-4.61,4.61v8.35a4.594,4.594,0,0,0,4.61,4.609h44.126Zm25.091-18.739a5.406,5.406,0,0,1,8.746,2.768,5.4,5.4,0,0,1-5.237,6.752h0l-14.653-.01Zm-42.878,9.52h0a5.407,5.407,0,0,1-1.632-10.562,5.588,5.588,0,0,1,1.67-.26,5.308,5.308,0,0,1,3.47,1.3l11.149,9.509Z" transform="translate(-94.05 966.538)" fill="#00a99d"/>
  </g>
</svg>
