<svg id="Group_390" data-name="Group 390" xmlns="http://www.w3.org/2000/svg" xmlns:xlink="http://www.w3.org/1999/xlink" width="15.064" height="13.681" viewBox="0 0 15.064 13.681">
  <defs>
    <clipPath id="clip-path">
      <rect id="Rectangle_247" data-name="Rectangle 247" width="15.064" height="13.681" fill="none"/>
    </clipPath>
  </defs>
  <g id="Group_388" data-name="Group 388" clip-path="url(#clip-path)">
    <path id="Path_378" data-name="Path 378" d="M5.46,1.2l-5.136,8.9A2.392,2.392,0,0,0,2.4,13.681H12.668a2.392,2.392,0,0,0,2.071-3.588L9.6,1.2a2.392,2.392,0,0,0-4.143,0l-5.136,8.9A2.392,2.392,0,0,0,2.4,13.681H12.668a2.392,2.392,0,0,0,2.071-3.588L9.6,1.2a2.392,2.392,0,0,0-4.143,0" transform="translate(0 0)" fill="#f60001"/>
    <path id="Path_379" data-name="Path 379" d="M97.6,142.722a.905.905,0,1,1-.905-.905.905.905,0,0,1,.905.905" transform="translate(-89.162 -132.007)" fill="#fff"/>
    <path id="Path_380" data-name="Path 380" d="M93.656,58.653,93.1,54.806a1.091,1.091,0,1,1,2.161,0l-.554,3.847a.532.532,0,0,1-1.052,0" transform="translate(-86.651 -49.852)" fill="#fff"/>
  </g>
</svg>
