<svg xmlns="http://www.w3.org/2000/svg" width="35.046" height="35.046" viewBox="0 0 35.046 35.046">
  <path id="fb" d="M17,.031h1.053q6.452,0,12.225,5.484,4.058,4.924,4.465,8.914a20.606,20.606,0,0,1,.306,2.394v1.443a18.143,18.143,0,0,1-2.378,8.1A18.121,18.121,0,0,1,22.8,34.244a21.9,21.9,0,0,1-5.076.832h-.407q-6.707,0-12.446-5.4A18.149,18.149,0,0,1,0,17.129v-.2a.774.774,0,0,1,.1-.407c0-.079-.034-.119-.1-.119A19.534,19.534,0,0,1,2.7,8.215,17.677,17.677,0,0,1,12.65.744,16.292,16.292,0,0,1,17,.031M14.619,11.22l.1,3.209q0,.153-.306.322H12.65v3.617h1.766q.153,0,.306.322v8.914l.051.629h3.684V18.589q.034-.221.2-.221h3.006q.2,0,.526-3.413v-.2H18.66a.18.18,0,0,1-.2-.2v-2.5q0-1.6,1.868-1.766H22.4V7.179q0-.306-2.173-.306H19.7q-3.583,0-4.67,2.683a11.088,11.088,0,0,0-.407,1.664" transform="translate(0 -0.031)" fill="#00a99d"/>
</svg>
