<svg xmlns="http://www.w3.org/2000/svg" width="20.577" height="20.517" viewBox="0 0 20.577 20.517">
  <path id="Path_308" data-name="Path 308" d="M90.009.091h1.466a10.183,10.183,0,0,1,5.356,1.945,10.57,10.57,0,0,1,3.281,4.079,10.074,10.074,0,0,1,.918,3.72v.848a10.537,10.537,0,0,1-2.8,6.762,10.5,10.5,0,0,1-7.55,3.162q-5.366,0-8.767-5a11.084,11.084,0,0,1-1.456-5.3,10.562,10.562,0,0,1,3.531-7.73A10.307,10.307,0,0,1,90.009.091M85.262,8.978v3.172q0,2.594,1.646,3.461.738.419,4.748.309,3.072,0,3.531-.668a3.307,3.307,0,0,0,1.037-2.743V8.429q0-2.414-1.705-3.162l-.758-.25-.768-.06H88.553a3.1,3.1,0,0,0-3.172,2.314,10.4,10.4,0,0,0-.12,1.705m3.471-3.042h4.259q2.314,0,2.314,2.434v4.319Q95,14.942,93.42,14.942H91.655q-1.237,0-2.613.06-2.294,0-2.683-1.456a18.08,18.08,0,0,1-.12-2.434V9.766q0-3.042.489-3.042a2.187,2.187,0,0,1,2-.788M87.944,10.5A2.812,2.812,0,0,0,90.2,13.237h1.217A2.847,2.847,0,0,0,93.6,10.444v-.13a2.841,2.841,0,0,0-2.793-2.673h-.06a2.653,2.653,0,0,0-2.623,1.945,2.668,2.668,0,0,0-.18.918m2.8-1.9h.06a1.755,1.755,0,0,1,1.766,1.406.9.9,0,0,1,.06.429q-.289,1.885-1.825,1.885a1.836,1.836,0,0,1-1.766-1.217,1.542,1.542,0,0,1-.13-.608q.219-1.9,1.835-1.9m2.3-1.027q.269.609.678.609t.668-.609q-.14-.738-.738-.738a.741.741,0,0,0-.609.738" transform="translate(-80.454 -0.091)" fill="#00a99d"/>
</svg>
