<svg xmlns="http://www.w3.org/2000/svg" width="34.774" height="34.892" viewBox="0 0 34.774 34.892">
  <path id="linkedin" d="M259.484,0h.815q5.485,0,10.951,4.227,4.058,4.075,4.958,7.335a10.5,10.5,0,0,1,.815,3.1q.2,1.74.2,2.267v1.647a19.12,19.12,0,0,1-1.647,6.3,18.105,18.105,0,0,1-8.353,8.354,19.21,19.21,0,0,1-7.233,1.664h-.2a17.533,17.533,0,0,1-11.869-4.754,17.242,17.242,0,0,1-4.228-6.2,16.986,16.986,0,0,1-1.239-5.264V16.5q0-5.331,4.432-10.833Q252.693,0,259.484,0m-6.6,11.138v.628a1.758,1.758,0,0,0,1.952,1.545,1.907,1.907,0,0,0,1.868-1.545v-.1q0-1.6-1.97-1.868a2.014,2.014,0,0,0-1.85,1.342m.2,3.718v9.61c.022.136.091.2.2.2h2.886a.18.18,0,0,0,.2-.2V15.062l-.2-.408h-2.886q-.2.034-.2.2m8.676.832h-.22V14.654h-3.294v9.814q.034.2.2.2h2.887a.18.18,0,0,0,.2-.2V19.2q.254-2.174,1.766-2.173,1.749,0,1.748,2.173v5.263q.035.2.2.2h3.107v-6.5a4.242,4.242,0,0,0-1.664-3.209,6.568,6.568,0,0,0-1.545-.509H264.12a3.55,3.55,0,0,0-2.36,1.24" transform="translate(-242.454 -0.001)" fill="#00a99d"/>
</svg>
