<svg id="Group_343" data-name="Group 343" xmlns="http://www.w3.org/2000/svg" xmlns:xlink="http://www.w3.org/1999/xlink" width="101.541" height="71" viewBox="0 0 101.541 71">
  <defs>
    <clipPath id="clip-path">
      <rect id="Rectangle_157" data-name="Rectangle 157" width="101.541" height="71" fill="none"/>
    </clipPath>
  </defs>
  <g id="Group_342" data-name="Group 342" clip-path="url(#clip-path)">
    <path id="Path_321" data-name="Path 321" d="M48.053,71.744V92.185H59.41V71.744a1.89,1.89,0,0,0-1.89-1.89H49.943a1.89,1.89,0,0,0-1.89,1.89" transform="translate(-28.219 -41.021)" fill="#274478"/>
    <path id="Path_322" data-name="Path 322" d="M99.835,52.067a1.89,1.89,0,0,0-1.89-1.89H90.368a1.89,1.89,0,0,0-1.89,1.89V80.63H99.835Z" transform="translate(-51.958 -29.466)" fill="#274478"/>
    <path id="Path_323" data-name="Path 323" d="M140.261,32.391a1.891,1.891,0,0,0-1.89-1.89h-7.577a1.891,1.891,0,0,0-1.89,1.89V69.076h11.357Z" transform="translate(-75.698 -17.911)" fill="#274478"/>
    <path id="Path_324" data-name="Path 324" d="M180.686,12.718a1.89,1.89,0,0,0-1.89-1.89h-7.577a1.89,1.89,0,0,0-1.89,1.89v44.8h11.357Z" transform="translate(-99.437 -6.359)" fill="#274478"/>
    <path id="Path_325" data-name="Path 325" d="M100.618,57.375l-8.245-8.242a3.151,3.151,0,1,0-4.454,4.457l2.863,2.861H14.545v-45.7l2.866,2.868a3.151,3.151,0,0,0,4.454-4.457L13.622.923a3.148,3.148,0,0,0-4.454,0L.923,9.168a3.151,3.151,0,0,0,4.454,4.457l2.868-2.868V59.6a3.151,3.151,0,0,0,3.15,3.151H90.784L87.919,65.62a3.151,3.151,0,1,0,4.454,4.457l8.245-8.245a3.152,3.152,0,0,0,0-4.457" transform="translate(0)" fill="#00a89d"/>
  </g>
</svg>
