<svg xmlns="http://www.w3.org/2000/svg" xmlns:xlink="http://www.w3.org/1999/xlink" width="48.959" height="43.008" viewBox="0 0 48.959 43.008">
  <defs>
    <clipPath id="clip-path">
      <rect id="Rectangle_222" data-name="Rectangle 222" width="48.959" height="43.008" fill="none"/>
    </clipPath>
  </defs>
  <g id="Group_374" data-name="Group 374" transform="translate(0 0)">
    <g id="Group_373" data-name="Group 373" transform="translate(0 0.001)" clip-path="url(#clip-path)">
      <path id="Path_354" data-name="Path 354" d="M15.688,39.414A2.719,2.719,0,0,1,18.408,36.7H25.5a2.72,2.72,0,0,1,2.719,2.719v2h4.089v-2A2.719,2.719,0,0,1,35.028,36.7h7.094a2.718,2.718,0,0,1,2.718,2.719v2h4.54V29.224a.843.843,0,0,0-.851-.827h-2.6a.842.842,0,0,0-.851.827,1.915,1.915,0,0,1-1.915,1.915h-25.8a1.914,1.914,0,0,1-1.915-1.915A.843.843,0,0,0,14.6,28.4H12a.843.843,0,0,0-.851.827V41.419h4.539Z" transform="translate(-5.783 -14.73)" fill="#fff"/>
      <path id="Path_355" data-name="Path 355" d="M44.155,59.8H4.8A4.8,4.8,0,0,0,0,64.6V73.18a.847.847,0,0,0,.846.847H3.458a.847.847,0,0,0,.847-.848,2.664,2.664,0,0,1,2.664-2.664H41.989a2.664,2.664,0,0,1,2.663,2.664.848.848,0,0,0,.848.847h2.611a.847.847,0,0,0,.847-.848V64.6a4.8,4.8,0,0,0-4.8-4.8" transform="translate(0 -31.019)" fill="#fff"/>
      <path id="Path_356" data-name="Path 356" d="M35.933,11.91h1.942l-3.092,4.243a1.424,1.424,0,0,0,1.15,2.263h4.743a1.424,1.424,0,1,0,0-2.848H38.734l3.093-4.243a1.424,1.424,0,0,0-1.151-2.263H35.933a1.424,1.424,0,0,0,0,2.848" transform="translate(-17.901 -4.701)" fill="#00a89d"/>
      <path id="Path_357" data-name="Path 357" d="M55.706,2.848h1.942L54.556,7.091a1.424,1.424,0,0,0,1.15,2.263h4.743a1.424,1.424,0,1,0,0-2.848H58.506L61.6,2.263A1.424,1.424,0,0,0,60.449,0H55.706a1.424,1.424,0,0,0,0,2.848" transform="translate(-28.157 0)" fill="#00a89d"/>
    </g>
  </g>
</svg>
