<svg id="Group_372" data-name="Group 372" xmlns="http://www.w3.org/2000/svg" xmlns:xlink="http://www.w3.org/1999/xlink" width="47.985" height="43.008" viewBox="0 0 47.985 43.008">
  <defs>
    <clipPath id="clip-path">
      <rect id="Rectangle_221" data-name="Rectangle 221" width="47.985" height="43.008" fill="none"/>
    </clipPath>
  </defs>
  <g id="Group_371" data-name="Group 371" transform="translate(0 0)" clip-path="url(#clip-path)">
    <path id="Path_351" data-name="Path 351" d="M47.1,29.11l-6.642-5.127V14.959a.709.709,0,0,0-.707-.707H36.627a.708.708,0,0,0-.706.706V20.48L25.379,12.345a2.274,2.274,0,0,0-2.773,0L.883,29.11a2.27,2.27,0,0,0-.41,3.183A2.319,2.319,0,0,0,2,33.159H6.814V47.67a2.156,2.156,0,0,0,2.156,2.156H26.835V34.237a1.078,1.078,0,0,1,1.078-1.078h4.992a1.078,1.078,0,0,1,1.078,1.078v15.59h5.032a2.156,2.156,0,0,0,2.156-2.156V33.159h4.586A2.255,2.255,0,0,0,47.1,29.11M21.15,39.229a1.078,1.078,0,0,1-1.078,1.078H15.08A1.078,1.078,0,0,1,14,39.229V34.237a1.078,1.078,0,0,1,1.078-1.078h4.992a1.078,1.078,0,0,1,1.078,1.078Z" transform="translate(0 -6.819)" fill="#fff"/>
    <path id="Path_352" data-name="Path 352" d="M85.012,6.357a.49.49,0,0,0,.163-.028.5.5,0,0,0,.3-.635l-.008-.023a2.928,2.928,0,0,1-.218-1.12,3.224,3.224,0,0,1,.318-1.1c.036-.089.075-.18.115-.272.054-.126.109-.255.162-.392a2.79,2.79,0,0,0,.2-.9,2.424,2.424,0,0,0-.135-.929,2.359,2.359,0,0,0-.195-.417,2.139,2.139,0,0,0-.292-.388.484.484,0,0,0-.455-.141.479.479,0,0,0-.361.57l.037.167c.006.024.017.06.03.1a1.368,1.368,0,0,1,.043.143l.007.03a1.475,1.475,0,0,1,.042.235,1.644,1.644,0,0,1-.015.5,2.108,2.108,0,0,1-.169.491l-.3.658a5.285,5.285,0,0,0-.267.774,2.937,2.937,0,0,0-.075.908,2.8,2.8,0,0,0,.685,1.593.5.5,0,0,0,.382.175" transform="translate(-48.202 0)" fill="#00a89d"/>
    <path id="Path_353" data-name="Path 353" d="M91.053,6.182a.5.5,0,0,0,.381.175A.5.5,0,0,0,91.9,5.7l-.008-.023a2.932,2.932,0,0,1-.218-1.121,3.206,3.206,0,0,1,.318-1.1c.037-.092.077-.186.118-.281.053-.123.107-.25.159-.383a2.785,2.785,0,0,0,.2-.9,2.422,2.422,0,0,0-.135-.929,2.376,2.376,0,0,0-.195-.418,2.116,2.116,0,0,0-.292-.388A.484.484,0,0,0,91.4.012a.477.477,0,0,0-.362.57l.037.166c.006.024.017.06.031.1s.033.1.043.144l.009.04a1.446,1.446,0,0,1,.04.225,1.657,1.657,0,0,1-.015.5,2.119,2.119,0,0,1-.17.491l-.3.658a5.348,5.348,0,0,0-.268.775,2.943,2.943,0,0,0-.075.908,2.8,2.8,0,0,0,.685,1.592" transform="translate(-51.891 -0.001)" fill="#00a89d"/>
  </g>
</svg>
