<svg xmlns="http://www.w3.org/2000/svg" xmlns:xlink="http://www.w3.org/1999/xlink" width="33.532" height="47.941" viewBox="0 0 33.532 47.941">
  <defs>
    <clipPath id="clip-path">
      <rect id="Rectangle_219" data-name="Rectangle 219" width="33.532" height="47.941" fill="none"/>
    </clipPath>
  </defs>
  <g id="Group_370" data-name="Group 370" transform="translate(0 0)">
    <g id="Group_369" data-name="Group 369" transform="translate(0 0)" clip-path="url(#clip-path)">
      <path id="Path_349" data-name="Path 349" d="M31.7,9.225A16.772,16.772,0,0,0,1.749,24.319L12.433,45.3a4.773,4.773,0,0,0,4.293,2.642,4.679,4.679,0,0,0,4.235-2.6C21.02,45.221,29.722,28.281,31.7,24.3a16.449,16.449,0,0,0,0-15.074M16.765,29.253A12.462,12.462,0,1,1,29.236,16.781,12.473,12.473,0,0,1,16.765,29.253" transform="translate(0 0)" fill="#fff"/>
      <path id="Path_350" data-name="Path 350" d="M26.011,16.85a1.189,1.189,0,0,0-1.566,0l-7.709,6.734a.718.718,0,0,0,.473,1.259h1.423V30.99a.6.6,0,0,0,.6.6h3.751a.439.439,0,0,0,.439-.438v-4.07a.439.439,0,0,1,.439-.438h2.734a.439.439,0,0,1,.439.438v4.07a.439.439,0,0,0,.439.438h3.75a.6.6,0,0,0,.6-.6V24.844h1.423a.718.718,0,0,0,.473-1.259Z" transform="translate(-8.465 -8.5)" fill="#00a89d"/>
    </g>
  </g>
</svg>
