<svg id="Group_143" data-name="Group 143" xmlns="http://www.w3.org/2000/svg" xmlns:xlink="http://www.w3.org/1999/xlink" width="81.184" height="72.894" viewBox="0 0 81.184 72.894">
  <defs>
    <clipPath id="clip-path">
      <rect id="Rectangle_97" data-name="Rectangle 97" width="81.184" height="72.894" fill="none"/>
    </clipPath>
  </defs>
  <g id="Group_142" data-name="Group 142" clip-path="url(#clip-path)">
    <path id="Path_303" data-name="Path 303" d="M45.376,17.542a20.34,20.34,0,0,1,1.8-8.414A32.774,32.774,0,0,1,32.914,1.085,3.881,3.881,0,0,0,30.189,0a3.776,3.776,0,0,0-2.7,1.085A33.124,33.124,0,0,1,4.524,10.266H3.916A3.9,3.9,0,0,0,0,14.155V31.724A38.972,38.972,0,0,0,15.557,62.892L27.808,72.1a4.019,4.019,0,0,0,2.381.794A3.9,3.9,0,0,0,32.57,72.1l12.251-9.208A38.9,38.9,0,0,0,59.982,37.227,20.617,20.617,0,0,1,45.376,17.542M30.184,16.205A8.481,8.481,0,1,1,21.7,24.686a8.482,8.482,0,0,1,8.481-8.481M44.232,49.013a1.771,1.771,0,0,1-1.775,1.773H17.908a1.771,1.771,0,0,1-1.775-1.773V43.671A9.875,9.875,0,0,1,21.9,34.4a12.7,12.7,0,0,0,16.555,0,9.849,9.849,0,0,1,5.772,9.268Z" fill="#00a99d"/>
    <path id="Path_304" data-name="Path 304" d="M105.31,4.057a15.257,15.257,0,1,0,15.256,15.256A15.256,15.256,0,0,0,105.31,4.057m7.744,12.81-7.987,8.577a2.175,2.175,0,0,1-3.185,0L97.373,20.6a2.176,2.176,0,1,1,3.188-2.964l2.915,3.133,6.4-6.867a2.175,2.175,0,1,1,3.182,2.966" transform="translate(-39.382 -1.774)" fill="#1c1c68"/>
  </g>
</svg>
