<svg id="Group_130" data-name="Group 130" xmlns="http://www.w3.org/2000/svg" xmlns:xlink="http://www.w3.org/1999/xlink" width="79.091" height="56.979" viewBox="0 0 79.091 56.979">
  <defs>
    <clipPath id="clip-path">
      <rect id="Rectangle_92" data-name="Rectangle 92" width="79.091" height="56.979" fill="none"/>
    </clipPath>
  </defs>
  <g id="Group_129" data-name="Group 129" transform="translate(0 0)" clip-path="url(#clip-path)">
    <path id="Path_255" data-name="Path 255" d="M110.176,63.841a6.461,6.461,0,1,0,6.461-6.461,6.461,6.461,0,0,0-6.461,6.461" transform="translate(-52.659 -27.425)" fill="#00a99d"/>
    <path id="Path_256" data-name="Path 256" d="M125.325,52.031a2.682,2.682,0,0,0-2.825,2.678v1.647c.1,5.759-1.148,9.881-3.6,11.92-.319.266-.642.514-.963.748a9.283,9.283,0,0,1-11.071-.527,7.592,7.592,0,0,0-4.808,7.255V80.5a1.35,1.35,0,0,0,1.349,1.349h18.7a1.349,1.349,0,0,0,1.348-1.349V75.752c0-.236-.008-.466-.024-.691a8.559,8.559,0,0,1,1.345-5.411c2.145-3.212,3.183-7.685,3.086-13.34V54.86a2.784,2.784,0,0,0-2.537-2.829" transform="translate(-48.778 -24.866)" fill="#00a99d"/>
    <path id="Path_257" data-name="Path 257" d="M59.148,63.841a6.461,6.461,0,1,0,6.461-6.461,6.461,6.461,0,0,0-6.461,6.461" transform="translate(-28.27 -27.425)" fill="#00a99d"/>
    <path id="Path_258" data-name="Path 258" d="M74.3,52.031a2.682,2.682,0,0,0-2.825,2.678v1.647c.1,5.759-1.148,9.881-3.6,11.92-.32.266-.642.514-.963.748A9.283,9.283,0,0,1,55.836,68.5a7.592,7.592,0,0,0-4.808,7.255V80.5a1.35,1.35,0,0,0,1.349,1.349h18.7A1.349,1.349,0,0,0,72.428,80.5V75.752c0-.236-.008-.466-.024-.691a8.558,8.558,0,0,1,1.345-5.411c2.145-3.212,3.183-7.685,3.086-13.34V54.86A2.785,2.785,0,0,0,74.3,52.031" transform="translate(-24.389 -24.866)" fill="#00a99d"/>
    <path id="Path_259" data-name="Path 259" d="M8.12,63.841a6.461,6.461,0,1,0,6.461-6.461A6.461,6.461,0,0,0,8.12,63.841" transform="translate(-3.881 -27.425)" fill="#00a99d"/>
    <path id="Path_260" data-name="Path 260" d="M23.27,52.031a2.682,2.682,0,0,0-2.825,2.678v1.647c.1,5.759-1.148,9.881-3.6,11.92-.319.266-.642.514-.963.748A9.283,9.283,0,0,1,4.808,68.5,7.592,7.592,0,0,0,0,75.752V80.5a1.35,1.35,0,0,0,1.349,1.349h18.7A1.349,1.349,0,0,0,21.4,80.5V75.752c0-.236-.008-.466-.024-.691a8.558,8.558,0,0,1,1.345-5.411c2.145-3.212,3.183-7.685,3.086-13.34V54.86a2.784,2.784,0,0,0-2.537-2.829" transform="translate(0 -24.866)" fill="#00a99d"/>
    <path id="Path_261" data-name="Path 261" d="M3.826,21.336H6.49L9.774,26.5a1.133,1.133,0,0,0,1.912,0l3.283-5.167h2.665A3.764,3.764,0,0,0,21.4,17.573V3.764A3.763,3.763,0,0,0,17.634,0H3.826A3.763,3.763,0,0,0,.062,3.764V17.573a3.764,3.764,0,0,0,3.764,3.763m1.152-11.9a1.763,1.763,0,0,1,2.494,0l1.743,1.743,4.771-4.771a1.764,1.764,0,0,1,2.494,2.494l-6.019,6.018a1.763,1.763,0,0,1-2.494,0l-2.99-2.99a1.764,1.764,0,0,1,0-2.494" transform="translate(-0.03 0)" fill="#1c1c68"/>
    <path id="Path_262" data-name="Path 262" d="M54.853,21.336h2.665L60.8,26.5a1.133,1.133,0,0,0,1.912,0L66,21.336h2.665a3.764,3.764,0,0,0,3.763-3.763V3.764A3.763,3.763,0,0,0,68.662,0H54.853A3.763,3.763,0,0,0,51.09,3.764V17.573a3.764,3.764,0,0,0,3.763,3.763m1.153-11.9a1.763,1.763,0,0,1,2.494,0l1.743,1.743,4.772-4.771a1.764,1.764,0,1,1,2.494,2.494L61.49,14.925a1.763,1.763,0,0,1-2.494,0l-2.99-2.99a1.763,1.763,0,0,1,0-2.494" transform="translate(-24.419 0)" fill="#1c1c68"/>
    <path id="Path_263" data-name="Path 263" d="M105.882,21.335h2.665L111.83,26.5a1.133,1.133,0,0,0,1.912,0l3.283-5.167h2.665a3.764,3.764,0,0,0,3.764-3.764V3.764A3.764,3.764,0,0,0,119.69,0H105.882a3.764,3.764,0,0,0-3.764,3.764V17.572a3.764,3.764,0,0,0,3.764,3.764m1.152-11.895a1.763,1.763,0,0,1,2.494,0l1.745,1.743,4.771-4.771a1.764,1.764,0,0,1,2.495,2.494l-6.019,6.018a1.764,1.764,0,0,1-2.494,0l-2.991-2.99a1.763,1.763,0,0,1,0-2.494" transform="translate(-48.808 0)" fill="#1c1c68"/>
  </g>
</svg>
