<svg xmlns="http://www.w3.org/2000/svg" width="179.88" height="142.032" viewBox="0 0 179.88 142.032">
  <g id="Group_138" data-name="Group 138" transform="translate(-366.101 -978.484)">
    <path id="Path_285" data-name="Path 285" d="M473.927,51.309,451.863,35.358V14.516a3.344,3.344,0,0,0-3.333-3.334H438.3a3.3,3.3,0,0,0-3.279,3.334v8.67L411.514,6.236a6.927,6.927,0,0,0-8.058,0l-36.4,26.287a13.537,13.537,0,0,1,3.669,9.337,21.59,21.59,0,0,1-.946,5.669L407.513,20.3,465.869,62.48a6.928,6.928,0,0,0,8.5-.389,6.853,6.853,0,0,0-.445-10.782" transform="translate(69.199 973.54)" fill="#00a99d"/>
    <path id="Path_286" data-name="Path 286" d="M364.635,67.574c11.948,10.837,26.843,29.568,26.843,48.631a49.79,49.79,0,0,1-1.778,13.449H447.89a8.918,8.918,0,0,0,8.892-8.892V72.909L407.04,36.951Z" transform="translate(69.672 967.279)" fill="#00a99d"/>
    <path id="Path_287" data-name="Path 287" d="M336.936,70.854c3.842-7.956,8.086-17.575,8.086-21.29,0-4.7-5.889-7.161-9.474-2.161-4.666,6.52-6.668-2.958-12.067-2.941-5.323.009-8.115,8.769-12.273,2.9C307.432,42,301,45.244,301,49.419c0,5.074,4.056,14.237,7.839,21.689-13.05,10.221-29,29.271-29,46.562,0,25.133,19.35,37.036,43.219,37.036s43.22-11.9,43.22-37.036c0-17.449-16.229-36.674-29.344-46.816M309.954,96.636a6.947,6.947,0,1,1-6.945,6.947,6.955,6.955,0,0,1,6.945-6.947m26.212,40.1a6.946,6.946,0,1,1,6.947-6.944,6.953,6.953,0,0,1-6.947,6.944m5.668-32.535-31.272,31.277a4.542,4.542,0,0,1-6.275,0,4.43,4.43,0,0,1,0-6.27l31.274-31.277h0a4.437,4.437,0,0,1,7.574,3.136,4.394,4.394,0,0,1-1.3,3.134" transform="translate(86.259 965.81)" fill="#1c1c68"/>
  </g>
</svg>
