<svg xmlns="http://www.w3.org/2000/svg" width="146.617" height="137.27" viewBox="0 0 146.617 137.27">
  <g id="Group_137" data-name="Group 137" transform="translate(-141 -979.288)">
    <path id="Path_276" data-name="Path 276" d="M37.634,80.6V44.46a1.7,1.7,0,0,1,1.7-1.7H57.417A7.057,7.057,0,0,0,64.474,35.7V17.591a1.7,1.7,0,0,1,1.7-1.7h46.765a5.292,5.292,0,0,1,5.3,5.3v35.2l9.976-10.94V21.191A15.248,15.248,0,0,0,112.967,5.943H64.927a15.18,15.18,0,0,0-10.77,4.45L32.136,32.443a15.044,15.044,0,0,0-4.479,10.771V80.6a33.884,33.884,0,0,1,9.977,0" transform="translate(135.59 973.345)" fill="#00a99d"/>
    <path id="Path_277" data-name="Path 277" d="M127.523,130.283v6.093a5.274,5.274,0,0,1-5.3,5.3h-44.7a34.48,34.48,0,0,1-2.409,9.977h47.1A15.3,15.3,0,0,0,137.5,136.376V120.42l-5.81,6.376a19.479,19.479,0,0,1-4.166,3.486" transform="translate(126.306 950.952)" fill="#00a99d"/>
    <path id="Path_278" data-name="Path 278" d="M96.279,129.875a11.165,11.165,0,0,1,.084-6.6l1.077-3.344H72.018a33.709,33.709,0,0,1,4.052,9.948Z" transform="translate(126.912 951.048)" fill="#00a99d"/>
    <path id="Path_279" data-name="Path 279" d="M105.542,93.054H59.26a4.988,4.988,0,1,0,0,9.977H97.833a20.543,20.543,0,0,1,3.6-5.47Z" transform="translate(130.384 956.305)" fill="#00a99d"/>
    <path id="Path_280" data-name="Path 280" d="M107.039,66.2H59.264a4.983,4.983,0,0,0,0,9.966h47.775a4.983,4.983,0,0,0,0-9.966" transform="translate(130.382 961.557)" fill="#00a99d"/>
    <path id="Path_281" data-name="Path 281" d="M113.242,39.342H90.975a4.984,4.984,0,0,0,0,9.967h22.267a4.984,4.984,0,0,0,0-9.967" transform="translate(124.178 966.812)" fill="#00a99d"/>
    <path id="Path_282" data-name="Path 282" d="M116.035,126.964l12.34-5.233a12.265,12.265,0,0,0,2.476-1.435l-13.239-12.077a12.255,12.255,0,0,0-1.2,2.6l-4.08,12.768a2.76,2.76,0,0,0,3.706,3.381" transform="translate(119.053 953.338)" fill="#00a99d"/>
    <path id="Path_283" data-name="Path 283" d="M170.024,65.106l-8.169-7.453a3.691,3.691,0,0,0-5.214.238L125.814,91.682l13.623,12.428,30.826-33.79a3.69,3.69,0,0,0-.24-5.214" transform="translate(116.389 963.418)" fill="#00a99d"/>
    <path id="Path_284" data-name="Path 284" d="M27.245,108.855A27.245,27.245,0,1,0,54.491,136.1a27.245,27.245,0,0,0-27.245-27.245m12.309,24.652L26.788,146.273a4.252,4.252,0,0,1-6.012,0l-6.343-6.343a4.251,4.251,0,0,1,6.011-6.013l3.338,3.337,9.76-9.76a4.251,4.251,0,0,1,6.012,6.012" transform="translate(141 953.214)" fill="#1c1c68"/>
  </g>
</svg>
