<svg id="Group_338" data-name="Group 338" xmlns="http://www.w3.org/2000/svg" width="55.993" height="59.029" viewBox="0 0 55.993 59.029">
  <path id="Path_314" data-name="Path 314" d="M413.094,28.64H444.4a4.364,4.364,0,0,0,4.358-4.358V4.358A4.364,4.364,0,0,0,444.4,0H413.094a4.364,4.364,0,0,0-4.358,4.358V24.282a4.364,4.364,0,0,0,4.358,4.358m1.772-20.851a1.414,1.414,0,0,1,1.827-2.159l12.056,10.2,12.056-10.2a1.414,1.414,0,1,1,1.826,2.159L435.1,14.159l7.555,6.714a1.415,1.415,0,0,1-1.879,2.117l-7.859-6.985-3.257,2.756a1.414,1.414,0,0,1-1.828,0L424.577,16l-7.859,6.985a1.415,1.415,0,0,1-1.878-2.117l7.554-6.715Z" transform="translate(-393.307)" fill="#fff"/>
  <path id="Path_315" data-name="Path 315" d="M380.559,58.407h-5.276a1.831,1.831,0,0,0,0,3.662h5.276a1.831,1.831,0,0,0,0-3.662" transform="translate(-369.626 -39.202)" fill="#fff"/>
  <path id="Path_316" data-name="Path 316" d="M365.283,41.643h8.565a1.831,1.831,0,1,0,0-3.661h-8.565a1.831,1.831,0,0,0,0,3.661" transform="translate(-362.914 -25.493)" fill="#fff"/>
  <path id="Path_317" data-name="Path 317" d="M375.284,21.222h5.276a1.83,1.83,0,1,0,0-3.661h-5.276a1.83,1.83,0,1,0,0,3.661" transform="translate(-369.627 -11.787)" fill="#fff"/>
  <path id="Path_318" data-name="Path 318" d="M413.81,104.072l-9.679,2.939a7.168,7.168,0,0,1-.006.741,6.148,6.148,0,0,1-4.93,5.59l-.4.081a63.964,63.964,0,0,1-11.087,1.286l-2.927.083a1.747,1.747,0,0,1-1.264-.478,1.764,1.764,0,0,1,1.159-3.047l3.139-.093a59.185,59.185,0,0,0,10.163-1.183l.513-.107a2.64,2.64,0,0,0,2.112-2.439,2.609,2.609,0,0,0-.678-1.914,2.661,2.661,0,0,0-1.845-.865l-15.563-.67a7.752,7.752,0,0,0-4.8,1.417l-15.374,11.731a1.357,1.357,0,0,0-.134,2.038l9.214,9.215a1.355,1.355,0,0,0,1.788.116l4.027-3.107a2.821,2.821,0,0,1,2.015-.573L391,126.068a8.858,8.858,0,0,0,6.313-1.781l19.282-14.8a3.093,3.093,0,0,0,.379-4.563,3.125,3.125,0,0,0-3.164-.854" transform="translate(-361.813 -69.765)" fill="#fff"/>
</svg>
