<svg xmlns="http://www.w3.org/2000/svg" width="20.587" height="20.587" viewBox="0 0 20.587 20.587">
  <path id="Path_307" data-name="Path 307" d="M9.984.031H10.6a10.237,10.237,0,0,1,9.8,8.458,12.1,12.1,0,0,1,.18,1.406v.848a10.657,10.657,0,0,1-1.4,4.758,10.645,10.645,0,0,1-5.795,4.628,12.862,12.862,0,0,1-2.982.489h-.239a10.5,10.5,0,0,1-7.311-3.172A10.661,10.661,0,0,1,0,10.075v-.12a.455.455,0,0,1,.06-.239c0-.046-.02-.07-.06-.07A11.475,11.475,0,0,1,1.586,4.838,10.384,10.384,0,0,1,7.431.45,9.57,9.57,0,0,1,9.984.031M8.588,6.6l.06,1.885q0,.09-.18.189H7.431V10.8H8.468q.09,0,.18.189v5.236l.03.369h2.164V10.933q.02-.13.12-.13h1.766a6.646,6.646,0,0,0,.309-2v-.12H10.961a.106.106,0,0,1-.12-.12V7.093q0-.938,1.1-1.038h1.217V4.23q0-.18-1.277-.18H11.57A2.637,2.637,0,0,0,8.827,5.626a6.513,6.513,0,0,0-.239.977" transform="translate(0 -0.031)" fill="#00a99d"/>
</svg>
