<svg id="Group_385" data-name="Group 385" xmlns="http://www.w3.org/2000/svg" xmlns:xlink="http://www.w3.org/1999/xlink" width="55.987" height="59.353" viewBox="0 0 55.987 59.353">
  <defs>
    <clipPath id="clip-path">
      <rect id="Rectangle_245" data-name="Rectangle 245" width="55.987" height="59.353" fill="none"/>
    </clipPath>
  </defs>
  <g id="Group_384" data-name="Group 384" clip-path="url(#clip-path)">
    <path id="Path_374" data-name="Path 374" d="M5.352,58.067,8,56.044a1.081,1.081,0,0,0,.432-.735l.5-3.745a1.133,1.133,0,0,1,1.265-.968l3.74.5a1.124,1.124,0,0,0,.827-.224l.615-.466a1.111,1.111,0,0,0,.429-.749l.5-3.74a1.113,1.113,0,0,1,1.259-.96l3.737.489a1.146,1.146,0,0,0,.836-.219l2.926-2.245a1.874,1.874,0,0,1,1.676-.32l.582.171a13.225,13.225,0,0,1,1.235-10.622c.243-.373.478-.752.716-1.118,1.692-2.689,3.615-5.736,7.259-6.543a6.386,6.386,0,0,1,.875-.136c-6.117-6.83-9.414-3.165-13.749.162C20.875,26.7,19.9,30.513,20.019,33.9A1.8,1.8,0,0,1,19.3,35.4L1.972,48.661a3.324,3.324,0,0,0-1.26,2.115L.045,54.894a3.274,3.274,0,0,0,.647,2.558,3.317,3.317,0,0,0,4.66.616" transform="translate(0 -13.644)" fill="#1f276c"/>
    <path id="Path_375" data-name="Path 375" d="M62.414,81.923a1.113,1.113,0,0,0,.156-.845l-.78-3.685a1.14,1.14,0,0,1,.871-1.339l3.685-.78a1.115,1.115,0,0,0,.709-.486l.423-.65a1.114,1.114,0,0,0,.157-.845l-.781-3.684a1.14,1.14,0,0,1,.871-1.34l3.685-.781A1.113,1.113,0,0,0,72.118,67l2.027-3.118a1.838,1.838,0,0,1,1.446-.839c3.381-.135,7.116-1.4,9.022-4.333,1.626-2.5,3.379-4.7,3.455-7.088a15.184,15.184,0,0,1-11.3,2.519,4.172,4.172,0,0,1-1.632-.634,4.355,4.355,0,0,1,3.111-7.947,6.484,6.484,0,0,0,4.807-1.067c-.422-.31-.88-.618-1.367-.935-9.889-6.431-11.818-1.493-15.044,3.467-1.905,2.931-1.55,6.86-.3,10a1.835,1.835,0,0,1-.18,1.662L54.274,76.977a3.3,3.3,0,0,0-.483,2.412l.746,4.112A3.329,3.329,0,0,0,60.6,84.716Z" transform="translate(-35.658 -26.872)" fill="#1f276c"/>
    <path id="Path_376" data-name="Path 376" d="M118.8,17.41a9.391,9.391,0,0,1-9.47,4.135A1.455,1.455,0,0,0,108.3,24.2a1.538,1.538,0,0,0,.543.214,12.3,12.3,0,1,0-7.524-19.784,10.668,10.668,0,0,1,1.851.973c.236.153.474.319.707.494A9.39,9.39,0,0,1,118.8,17.41" transform="translate(-67.23 0)" fill="#00a99d"/>
  </g>
</svg>
