<svg id="Group_383" data-name="Group 383" xmlns="http://www.w3.org/2000/svg" xmlns:xlink="http://www.w3.org/1999/xlink" width="60.908" height="52.237" viewBox="0 0 60.908 52.237">
  <defs>
    <clipPath id="clip-path">
      <rect id="Rectangle_243" data-name="Rectangle 243" width="60.908" height="52.237" fill="none"/>
    </clipPath>
  </defs>
  <g id="Group_382" data-name="Group 382" clip-path="url(#clip-path)">
    <path id="Path_371" data-name="Path 371" d="M59.381,20.115l-9.552-6.894V4.371a1.718,1.718,0,0,0-1.718-1.718H44.187A1.718,1.718,0,0,0,42.47,4.371V7.91L32.369.619a3.273,3.273,0,0,0-3.831,0L1.526,20.115a3.679,3.679,0,1,0,4.306,5.967L30.454,8.31,55.075,26.082a3.679,3.679,0,1,0,4.306-5.967" transform="translate(0)" fill="#00a99d"/>
    <path id="Path_372" data-name="Path 372" d="M50.216,44.181,28.48,59.871V81.2a1.7,1.7,0,0,0,1.718,1.7H70.234a1.711,1.711,0,0,0,1.718-1.7V59.871Zm6.131,29.875a9.028,9.028,0,0,1-4.3,1.032,8.143,8.143,0,0,1-8.013-5.365h-1.05a1.1,1.1,0,1,1,0-2.191h.594c-.023-.228-.023-.48-.023-.731s0-.5.023-.753h-.594a1.1,1.1,0,0,1,0-2.192h1.05a8.217,8.217,0,0,1,8.036-5.342,8.742,8.742,0,0,1,4.254,1.032,1.653,1.653,0,1,1-1.679,2.846,4.939,4.939,0,0,0-2.6-.682,4.831,4.831,0,0,0-4.2,2.146h4.817a1.1,1.1,0,1,1,0,2.192H47.07c-.023.251-.046.5-.046.753s.023.5.046.731h5.593a1.1,1.1,0,1,1,0,2.191h-4.84a4.783,4.783,0,0,0,4.224,2.169,5.153,5.153,0,0,0,2.7-.694,1.639,1.639,0,1,1,1.6,2.858" transform="translate(-19.762 -30.657)" fill="#1f276c"/>
  </g>
</svg>
