<svg id="Group_381" data-name="Group 381" xmlns="http://www.w3.org/2000/svg" xmlns:xlink="http://www.w3.org/1999/xlink" width="52.868" height="52.237" viewBox="0 0 52.868 52.237">
  <defs>
    <clipPath id="clip-path">
      <rect id="Rectangle_242" data-name="Rectangle 242" width="52.868" height="52.237" fill="none"/>
    </clipPath>
  </defs>
  <g id="Group_380" data-name="Group 380" clip-path="url(#clip-path)">
    <path id="Path_367" data-name="Path 367" d="M45.3,15.614H43.919v3.76a5.161,5.161,0,0,1-5.172,5.136H35.5a5.161,5.161,0,0,1-5.172-5.136v-3.76H22.542v3.76a5.157,5.157,0,0,1-5.154,5.136H14.122a5.157,5.157,0,0,1-5.154-5.136v-3.76H7.573A7.582,7.582,0,0,0,0,23.187v5.525H52.868V23.187A7.571,7.571,0,0,0,45.3,15.614" transform="translate(-0.001 -10.437)" fill="#00a99d"/>
    <path id="Path_368" data-name="Path 368" d="M0,88.448A7.594,7.594,0,0,0,7.573,96.02H45.3a7.583,7.583,0,0,0,7.573-7.573V65.5H0ZM16.876,77.98a2.741,2.741,0,0,1,3.884.141l3.548,3.813,7.82-8.42a2.754,2.754,0,1,1,4.024,3.76L26.319,87.83a2.755,2.755,0,0,1-4.042,0l-5.543-5.948a2.746,2.746,0,0,1,.141-3.9" transform="translate(0 -43.783)" fill="#1f276c"/>
    <path id="Path_369" data-name="Path 369" d="M39.152,10.645h3.257a1.716,1.716,0,0,0,1.716-1.716V1.715A1.716,1.716,0,0,0,42.409,0H39.152a1.716,1.716,0,0,0-1.716,1.716V8.928a1.716,1.716,0,0,0,1.716,1.716" transform="translate(-25.024 0.001)" fill="#00a99d"/>
    <path id="Path_370" data-name="Path 370" d="M103.588,10.645h3.257a1.716,1.716,0,0,0,1.716-1.716V1.715A1.716,1.716,0,0,0,106.845,0h-3.257a1.716,1.716,0,0,0-1.716,1.716V8.928a1.716,1.716,0,0,0,1.716,1.716" transform="translate(-68.096 0.001)" fill="#00a99d"/>
  </g>
</svg>
