<svg xmlns="http://www.w3.org/2000/svg" width="35.029" height="34.926" viewBox="0 0 35.029 34.926">
  <path id="insta" d="M96.72.091h2.5q4.007,0,9.118,3.311a18,18,0,0,1,5.586,6.944,17.149,17.149,0,0,1,1.562,6.333v1.443q0,5.807-4.771,11.512a17.875,17.875,0,0,1-12.853,5.383q-9.135,0-14.925-8.507a18.868,18.868,0,0,1-2.479-9.016q0-7.3,6.011-13.159Q92.068.091,96.72.091M88.638,15.219v5.4q0,4.415,2.8,5.892,1.257.714,8.083.527,5.229,0,6.011-1.138,1.766-1.409,1.766-4.669V14.286q0-4.11-2.9-5.383L103.1,8.479l-1.307-.1H94.241a5.283,5.283,0,0,0-5.4,3.94,17.708,17.708,0,0,0-.2,2.9m5.909-5.179h7.25q3.939,0,3.939,4.143v7.352q-.526,3.837-3.209,3.837h-3q-2.106,0-4.449.1-3.9,0-4.567-2.479a30.778,30.778,0,0,1-.2-4.143V16.561q0-5.179.832-5.179.832-1.342,3.413-1.342m-1.342,7.777q0,3.345,3.838,4.652h2.071q3.718-1.342,3.719-4.754v-.221a4.836,4.836,0,0,0-4.755-4.55h-.1a4.516,4.516,0,0,0-4.466,3.311,4.542,4.542,0,0,0-.306,1.562m4.771-3.226h.1a2.988,2.988,0,0,1,3.006,2.394,1.536,1.536,0,0,1,.1.73q-.493,3.209-3.107,3.209a3.125,3.125,0,0,1-3.006-2.071,2.626,2.626,0,0,1-.221-1.035q.374-3.226,3.124-3.226m3.922-1.749q.458,1.036,1.155,1.036t1.138-1.036q-.238-1.257-1.256-1.257a1.262,1.262,0,0,0-1.036,1.257" transform="translate(-80.454 -0.091)" fill="#00a99d"/>
</svg>
