<svg xmlns="http://www.w3.org/2000/svg" width="20.427" height="20.497" viewBox="0 0 20.427 20.497">
  <path id="Path_309" data-name="Path 309" d="M252.458,0h.479a10.5,10.5,0,0,1,6.433,2.483,10.62,10.62,0,0,1,2.913,4.309,6.168,6.168,0,0,1,.479,1.82q.12,1.022.12,1.332v.967a11.231,11.231,0,0,1-.968,3.7,10.636,10.636,0,0,1-4.907,4.907,11.284,11.284,0,0,1-4.249.977h-.12a10.3,10.3,0,0,1-6.972-2.793,10.129,10.129,0,0,1-2.484-3.641,9.978,9.978,0,0,1-.728-3.092V9.7a10.2,10.2,0,0,1,2.6-6.363A10.44,10.44,0,0,1,252.458,0m-3.88,6.543v.369a1.033,1.033,0,0,0,1.147.908,1.12,1.12,0,0,0,1.1-.908v-.06q0-.938-1.157-1.1a1.183,1.183,0,0,0-1.087.788m.12,2.184v5.645c.013.08.053.12.12.12h1.7a.106.106,0,0,0,.12-.12V8.848l-.12-.24h-1.7q-.12.02-.12.12m5.1.489h-.13V8.608H251.73v5.765q.02.12.12.12h1.7a.106.106,0,0,0,.12-.12V11.282Q253.814,10,254.7,10q1.027,0,1.027,1.277v3.092q.02.12.12.12h1.825v-3.82a2.492,2.492,0,0,0-.977-1.885,3.858,3.858,0,0,0-.908-.3h-.608a2.085,2.085,0,0,0-1.386.728" transform="translate(-242.454 -0.001)" fill="#00a99d"/>
</svg>
