<svg id="Group_337" data-name="Group 337" xmlns="http://www.w3.org/2000/svg" width="50.47" height="50.542" viewBox="0 0 50.47 50.542">
  <path id="Path_310" data-name="Path 310" d="M80.452,23.931A17.244,17.244,0,0,1,97.7,41.2a2.394,2.394,0,0,0,2.374,2.412h.019a2.393,2.393,0,0,0,2.393-2.374,22.031,22.031,0,0,0-22.037-22.1,2.393,2.393,0,0,0,0,4.786" transform="translate(-52.392 -18.749)" fill="#fff"/>
  <path id="Path_311" data-name="Path 311" d="M80.419,51.8a8.114,8.114,0,0,1,8.137,8.137,2.393,2.393,0,1,0,4.786,0A12.9,12.9,0,0,0,80.419,47.013a2.393,2.393,0,0,0,0,4.786" transform="translate(-52.37 -37.454)" fill="#fff"/>
  <path id="Path_312" data-name="Path 312" d="M75,81.363l0,0a3.747,3.747,0,0,0,5.3-5.3,3.84,3.84,0,0,0-5.3,0,3.746,3.746,0,0,0,0,5.3Z" transform="translate(-49.605 -56.242)" fill="#fff"/>
  <path id="Path_313" data-name="Path 313" d="M48.628,54.626,38.314,49.293a3.406,3.406,0,0,0-4.251.931l-3.786,4.855a38.434,38.434,0,0,1-9.735-7.134,37.621,37.621,0,0,1-7.209-9.9l4.8-3.747a3.406,3.406,0,0,0,.931-4.25L13.759,19.784a3.405,3.405,0,0,0-4.915-1.27l-6.569,4.38a5.109,5.109,0,0,0-2.264,4.6A35.573,35.573,0,0,0,.8,33.36c1.912,7.36,6.511,14.949,12.944,21.383S27.768,65.774,35.127,67.687a35.3,35.3,0,0,0,5.893.785,5.105,5.105,0,0,0,4.629-2.333L49.927,59.5a3.407,3.407,0,0,0-1.3-4.87" transform="translate(0 -17.941)" fill="#fff"/>
</svg>
