<svg id="Group_345" data-name="Group 345" xmlns="http://www.w3.org/2000/svg" xmlns:xlink="http://www.w3.org/1999/xlink" width="87.004" height="83.166" viewBox="0 0 87.004 83.166">
  <defs>
    <clipPath id="clip-path">
      <rect id="Rectangle_158" data-name="Rectangle 158" width="87.004" height="83.166" fill="none"/>
    </clipPath>
  </defs>
  <g id="Group_344" data-name="Group 344" clip-path="url(#clip-path)">
    <path id="Path_326" data-name="Path 326" d="M49.415,89.384a28.122,28.122,0,0,0-2.9,8.413l-2.293.022a5.852,5.852,0,0,0-5.818,5.839v9.776a5.834,5.834,0,0,0,5.84,5.839h.043l5.234-.021a2.742,2.742,0,0,0,2.725-2.725v-13.95a22.09,22.09,0,0,1,2.509-10.165,7.572,7.572,0,0,1-2.1-.93Z" transform="translate(-23.488 -54.665)" fill="#00a99d"/>
    <path id="Path_327" data-name="Path 327" d="M143.527,74.051l-2.335-.022a28.314,28.314,0,0,0-36.1-22.3,18.452,18.452,0,0,1-3.158,5.126l.736,2.292c.022.065.043.151.065.216a21.955,21.955,0,0,1,10.533-2.682,22.208,22.208,0,0,1,22.19,22.19V97.906a9.073,9.073,0,0,1-9.062,9.062h-5.06a3.592,3.592,0,0,0-3.461-2.747h-9.192a3.65,3.65,0,0,0-3.655,3.655v2.53a3.664,3.664,0,0,0,3.655,3.656h9.192a3.587,3.587,0,0,0,3.461-2.768h5.06a13.411,13.411,0,0,0,13.387-13.388V95.484l3.677.021h.044a5.834,5.834,0,0,0,5.839-5.839V79.89a5.867,5.867,0,0,0-5.818-5.839" transform="translate(-62.342 -30.896)" fill="#00a99d"/>
    <path id="Path_328" data-name="Path 328" d="M33.191,24.356c3.228-2.587,5.22-6.061,5.22-9.891C38.411,6.476,29.812,0,19.206,0S0,6.476,0,14.465,8.6,28.927,19.206,28.927a24.778,24.778,0,0,0,6.653-.91l6.35,4.058a1.848,1.848,0,0,0,2.757-2.116ZM9.8,17.487a3.024,3.024,0,1,1,3.023-3.023A3.023,3.023,0,0,1,9.8,17.487m9.409,0a3.024,3.024,0,1,1,3.023-3.023,3.023,3.023,0,0,1-3.023,3.023m9.408,0a3.024,3.024,0,1,1,3.024-3.023,3.023,3.023,0,0,1-3.024,3.023" transform="translate(0 -0.001)" fill="#1c1c68"/>
    <path id="Path_329" data-name="Path 329" d="M105.865,104.852a4.119,4.119,0,1,0-4.119,4.118,4.118,4.118,0,0,0,4.119-4.118" transform="translate(-59.706 -61.606)" fill="#00a99d"/>
    <path id="Path_330" data-name="Path 330" d="M151.8,104.852a4.118,4.118,0,1,0-4.118,4.118,4.117,4.117,0,0,0,4.118-4.118" transform="translate(-87.798 -61.606)" fill="#00a99d"/>
    <path id="Path_331" data-name="Path 331" d="M113.417,149.2a11.4,11.4,0,0,0,11.277-9.7,1.474,1.474,0,0,0-1.443-1.7H103.585a1.474,1.474,0,0,0-1.442,1.7,11.4,11.4,0,0,0,11.274,9.7" transform="translate(-62.457 -84.271)" fill="#00a99d"/>
  </g>
</svg>
