<svg xmlns="http://www.w3.org/2000/svg" width="34.91" height="34.91" viewBox="0 0 34.91 34.91">
  <path id="youtube" d="M178.97.061q8.541,0,14.246,7.437a18.1,18.1,0,0,1,3.209,10.12,17.661,17.661,0,0,1-4.449,11.461,17.472,17.472,0,0,1-13.006,5.892q-8.4,0-14.144-7.233a19.283,19.283,0,0,1-2.9-6.3l-.407-2.886V16.684a18.557,18.557,0,0,1,2.275-7.845Q169.563.061,178.97.061m-.73,10.748q-8.677,0-8.677,1.342-.662.407-.815,5.569v.1q0,5.841,1.443,6.622a15.79,15.79,0,0,0,5.161.509h9.3q3.243,0,3.82-1.443a14.577,14.577,0,0,0,.611-4.958V17.108q0-4.839-1.24-5.688-.934-.611-9.61-.611M176.9,15.037h.1a49.92,49.92,0,0,1,5.06,2.784L177.22,20.5H176.9Z" transform="translate(-161.515 -0.061)" fill="#00a99d"/>
</svg>
